ffmpeg version 3.4.8-0ubuntu0.2 Copyright (c) 2000-2020 the FFmpeg developers
  built with gcc 7 (Ubuntu 7.5.0-3ubuntu1~18.04)
  configuration: --prefix=/usr --extra-version=0ubuntu0.2 --toolchain=hardened --libdir=/usr/lib/x86_64-linux-gnu --incdir=/usr/include/x86_64-linux-gnu --enable-gpl --disable-stripping --enable-avresample --enable-avisynth --enable-gnutls --enable-ladspa --enable-libass --enable-libbluray --enable-libbs2b --enable-libcaca --enable-libcdio --enable-libflite --enable-libfontconfig --enable-libfreetype --enable-libfribidi --enable-libgme --enable-libgsm --enable-libmp3lame --enable-libmysofa --enable-libopenjpeg --enable-libopenmpt --enable-libopus --enable-libpulse --enable-librubberband --enable-librsvg --enable-libshine --enable-libsnappy --enable-libsoxr --enable-libspeex --enable-libssh --enable-libtheora --enable-libtwolame --enable-libvorbis --enable-libvpx --enable-libwavpack --enable-libwebp --enable-libx265 --enable-libxml2 --enable-libxvid --enable-libzmq --enable-libzvbi --enable-omx --enable-openal --enable-opengl --enable-sdl2 --enable-libdc1394 --enable-libdrm --enable-libiec61883 --enable-chromaprint --enable-frei0r --enable-libopencv --enable-libx264 --enable-shared
  libavutil      55. 78.100 / 55. 78.100
  libavcodec     57.107.100 / 57.107.100
  libavformat    57. 83.100 / 57. 83.100
  libavdevice    57. 10.100 / 57. 10.100
  libavfilter     6.107.100 /  6.107.100
  libavresample   3.  7.  0 /  3.  7.  0
  libswscale      4.  8.100 /  4.  8.100
  libswresample   2.  9.100 /  2.  9.100
  libpostproc    54.  7.100 / 54.  7.100
[rawvideo @ 0x555f2b57ba20] Estimating duration from bitrate, this may be inaccurate
Input #0, rawvideo, from '../../SVC-Encoder-20220109T061506Z-001/SVC-Encoder/Dataset/RollerCoaster/6f_2x2/tile_yuv/f3_t0_480x480.yuv':
  Duration: 00:00:10.00, start: 0.000000, bitrate: 82944 kb/s
    Stream #0:0: Video: rawvideo (I420 / 0x30323449), yuv420p, 480x480, 82944 kb/s, 30 tbr, 30 tbn, 30 tbc
Stream mapping:
  Stream #0:0 -> #0:0 (rawvideo (native) -> h264 (libx264))
Press [q] to stop, [?] for help
[libx264 @ 0x555f2b588c60] using cpu capabilities: MMX2 SSE2Fast LZCNT SSSE3 SSE4.2 AVX
[libx264 @ 0x555f2b588c60] profile High, level 3.0
Output #0, rawvideo, to 'RollerCoaster_f3_t0_480x480_x264_QP_20.h264':
  Metadata:
    encoder         : Lavf57.83.100
    Stream #0:0: Video: h264 (libx264), yuv420p, 480x480, q=-1--1, 30 fps, 30 tbn, 30 tbc
    Metadata:
      encoder         : Lavc57.107.100 libx264
    Side data:
      cpb: bitrate max/min/avg: 0/0/0 buffer size: 0 vbv_delay: -1
frame=  103 fps=0.0 q=26.0 PSNR=Y:nan U:nan V:nan *:nan size=     174kB time=00:00:02.00 bitrate= 711.6kbits/s speed=3.97x    frame=  164 fps=162 q=26.0 PSNR=Y:nan U:nan V:nan *:nan size=     256kB time=00:00:04.03 bitrate= 520.0kbits/s speed=   4x    frame=  229 fps=151 q=26.0 PSNR=Y:nan U:nan V:nan *:nan size=     256kB time=00:00:06.20 bitrate= 338.3kbits/s speed=4.09x    frame=  298 fps=147 q=26.0 PSNR=Y:nan U:nan V:nan *:nan size=     512kB time=00:00:08.50 bitrate= 493.4kbits/s speed=4.19x    frame=  300 fps=131 q=26.0 LPSNR=Y:inf U:inf V:inf *:inf size=     733kB time=00:00:09.93 bitrate= 604.6kbits/s speed=4.33x    
video:733kB audio:0kB subtitle:0kB other streams:0kB global headers:0kB muxing overhead: 0.000000%
[libx264 @ 0x555f2b588c60] frame I:2     Avg QP:17.93  size: 39893  PSNR Mean Y:47.70 U:49.73 V:48.68 Avg:48.14 Global:48.09
[libx264 @ 0x555f2b588c60] frame P:76    Avg QP:19.62  size:  6661  PSNR Mean Y:45.65 U:48.76 V:47.48 Avg:46.31 Global:46.25
[libx264 @ 0x555f2b588c60] frame B:222   Avg QP:25.46  size:   742  PSNR Mean Y:44.39 U:48.59 V:47.21 Avg:45.26 Global:45.22
[libx264 @ 0x555f2b588c60] consecutive B-frames:  1.3%  0.0%  0.0% 98.7%
[libx264 @ 0x555f2b588c60] mb I  I16..4: 13.1% 52.4% 34.6%
[libx264 @ 0x555f2b588c60] mb P  I16..4:  1.2%  0.7%  0.0%  P16..4: 39.1% 20.8% 16.0%  0.0%  0.0%    skip:22.1%
[libx264 @ 0x555f2b588c60] mb B  I16..4:  0.0%  0.0%  0.0%  B16..8: 32.6%  7.0%  0.6%  direct: 0.6%  skip:59.2%  L0:41.8% L1:47.3% BI:11.0%
[libx264 @ 0x555f2b588c60] 8x8 transform intra:45.8% inter:60.4%
[libx264 @ 0x555f2b588c60] coded y,uvDC,uvAC intra: 52.7% 72.1% 43.1% inter: 11.8% 11.7% 0.7%
[libx264 @ 0x555f2b588c60] i16 v,h,dc,p: 37% 26% 20% 17%
[libx264 @ 0x555f2b588c60] i8 v,h,dc,ddl,ddr,vr,hd,vl,hu: 21% 17% 26%  5%  6%  6%  6%  8%  5%
[libx264 @ 0x555f2b588c60] i4 v,h,dc,ddl,ddr,vr,hd,vl,hu: 23% 15%  9%  6% 11% 14%  9%  7%  6%
[libx264 @ 0x555f2b588c60] i8c dc,h,v,p: 40% 24% 23% 13%
[libx264 @ 0x555f2b588c60] Weighted P-Frames: Y:1.3% UV:0.0%
[libx264 @ 0x555f2b588c60] ref P L0: 55.2% 11.5% 24.3%  9.0%  0.1%
[libx264 @ 0x555f2b588c60] ref B L0: 68.4% 25.0%  6.6%
[libx264 @ 0x555f2b588c60] ref B L1: 79.9% 20.1%
[libx264 @ 0x555f2b588c60] PSNR Mean Y:44.729 U:48.640 V:47.287 Avg:45.545 Global:45.478 kb/s:600.61
